<svg width="25" height="25" viewBox="0 0 25 25" fill="none" xmlns="http://www.w3.org/2000/svg">
    <path d="M21.25 24C21.7167 24 22.125 23.8167 22.475 23.45C22.825 23.0833 23 22.6556 23 22.1667V3.83333C23 3.34444 22.825 2.91667 22.475 2.55C22.125 2.18333 21.7167 2 21.25 2H13.1125V3.83333H21.25V22.1667H3.75V13.6417H2V22.1667C2 22.6556 2.175 23.0833 2.525 23.45C2.875 23.8167 3.28328 24 3.75 24H21.25ZM15.3583 17.3083L16.5833 15.9944L4.975 3.83333H11.3625V2H2V11.8083H3.75V5.14723L15.3583 17.3083Z" fill="#1A1B50"/>
</svg>
