<svg width="41" height="41" viewBox="0 0 41 41" fill="none" xmlns="http://www.w3.org/2000/svg">
<g id="Frame">
<path id="Vector" d="M20.4989 24.313C22.6003 24.313 24.31 22.6033 24.31 20.5018C24.31 18.4004 22.6003 16.6907 20.4989 16.6907C18.3975 16.6907 16.6877 18.4004 16.6877 20.5018C16.6877 22.6033 18.3975 24.313 20.4989 24.313ZM20.4989 17.8942C21.9367 17.8942 23.1065 19.064 23.1065 20.5018C23.1065 21.9396 21.9367 23.1095 20.4989 23.1095C19.0611 23.1095 17.8913 21.9396 17.8913 20.5018C17.8913 19.064 19.0611 17.8942 20.4989 17.8942ZM7.6212 16.0087C7.6212 14.6151 6.4874 13.4813 5.0938 13.4813C3.7002 13.4813 2.56641 14.6151 2.56641 16.0087C2.56641 17.4023 3.7002 18.5361 5.0938 18.5361C6.4874 18.5361 7.6212 17.4023 7.6212 16.0087ZM3.76993 16.0087C3.76993 15.2787 4.36383 14.6848 5.0938 14.6848C5.82378 14.6848 6.41768 15.2787 6.41768 16.0087C6.41768 16.7387 5.82378 17.3326 5.0938 17.3326C4.36383 17.3326 3.76993 16.7387 3.76993 16.0087ZM31.4108 12.1173C32.8044 12.1173 33.9382 10.9835 33.9382 9.5899C33.9382 8.1963 32.8044 7.0625 31.4108 7.0625C30.0172 7.0625 28.8834 8.1963 28.8834 9.5899C28.8834 10.9835 30.0172 12.1173 31.4108 12.1173ZM31.4108 8.26602C32.1408 8.26602 32.7347 8.85992 32.7347 9.5899C32.7347 10.3199 32.1408 10.9138 31.4108 10.9138C30.6809 10.9138 30.087 10.3199 30.087 9.5899C30.087 8.85992 30.6809 8.26602 31.4108 8.26602ZM19.175 36.5488C19.175 35.1552 18.0412 34.0214 16.6476 34.0214C15.254 34.0214 14.1202 35.1552 14.1202 36.5488C14.1202 37.9424 15.254 39.0762 16.6476 39.0762C18.0412 39.0762 19.175 37.9424 19.175 36.5488ZM16.6476 37.8727C15.9176 37.8727 15.3237 37.2788 15.3237 36.5488C15.3237 35.8188 15.9176 35.2249 16.6476 35.2249C17.3776 35.2249 17.9715 35.8188 17.9715 36.5488C17.9715 37.2788 17.3776 37.8727 16.6476 37.8727ZM25.8606 31.4691C25.7836 31.4514 25.7038 31.449 25.6259 31.4621C25.5479 31.4751 25.4733 31.5034 25.4063 31.5453C25.3393 31.5873 25.2812 31.642 25.2354 31.7063C25.1895 31.7707 25.1568 31.8434 25.139 31.9205C24.0193 36.7796 22.2413 39.7983 20.4989 39.7983C20.0903 39.7983 19.6718 39.6276 19.2547 39.2909C19.1932 39.2413 19.1225 39.2042 19.0467 39.1819C18.9709 39.1595 18.8915 39.1524 18.8129 39.1607C18.7343 39.1691 18.6582 39.1929 18.5888 39.2307C18.5194 39.2685 18.4581 39.3196 18.4085 39.3811C18.3082 39.5053 18.2614 39.6642 18.2783 39.8229C18.2952 39.9816 18.3745 40.1271 18.4986 40.2273C19.1352 40.7413 19.8081 41.0018 20.4989 41.0018C21.7766 41.0018 22.9535 40.1387 23.9969 38.4366C24.9148 36.9393 25.7153 34.7795 26.3118 32.1907C26.3477 32.0352 26.3202 31.8718 26.2356 31.7365C26.151 31.6012 26.0161 31.505 25.8606 31.4691Z" fill="black"/>
<path id="Vector_2" d="M38.1821 27.2716C37.67 26.0454 36.7341 24.6757 35.4003 23.2008C34.5935 22.3085 33.6638 21.4032 32.633 20.5005C34.3285 19.0177 35.7237 17.5498 36.7505 16.1599C38.5552 13.7169 39.0748 11.6733 38.253 10.25C37.7389 9.35947 36.7625 8.80184 35.3511 8.59235C35.1933 8.56892 35.0325 8.60917 34.9043 8.70423C34.7761 8.7993 34.691 8.9414 34.6675 9.09927C34.6441 9.25714 34.6843 9.41786 34.7794 9.54606C34.8745 9.67426 35.0166 9.75944 35.1745 9.78287C36.2044 9.93572 36.8895 10.2953 37.2107 10.8518C38.0645 12.3305 36.3682 15.6786 31.7073 19.7131C30.3967 18.6294 28.9474 17.5559 27.3934 16.5198C27.2732 14.6573 27.0683 12.8667 26.7855 11.1909C27.1759 11.0559 27.5684 10.9271 27.9629 10.8047C28.1143 10.7566 28.2406 10.6507 28.3143 10.5099C28.3879 10.3691 28.4028 10.2049 28.3559 10.0531C28.3089 9.90133 28.2038 9.77429 28.0635 9.69971C27.9232 9.62512 27.7591 9.60904 27.607 9.65498C27.2586 9.76337 26.9117 9.87659 26.5665 9.99461C26.2999 8.64948 25.9806 7.39075 25.611 6.24508C25.0005 4.3525 24.2823 2.85716 23.4765 1.80055C22.5652 0.605773 21.5636 0 20.4994 0C19.2525 0 18.1002 0.82345 17.0747 2.44748C16.174 3.87374 15.3803 5.93858 14.7793 8.41864C14.7427 8.57339 14.7689 8.73634 14.8521 8.87187C14.9352 9.0074 15.0687 9.10449 15.2232 9.14194C15.3778 9.17938 15.5409 9.15413 15.6769 9.0717C15.8129 8.98927 15.9107 8.85637 15.949 8.70203C17.0697 4.07681 18.8134 1.20352 20.4994 1.20352C21.8899 1.20352 23.3726 3.22632 24.4655 6.61456C24.8373 7.76705 25.157 9.03902 25.421 10.4028C23.8214 10.9981 22.1686 11.7158 20.5005 12.5401C17.0306 10.8245 13.6454 9.57627 10.7101 8.94586C8.76588 8.52832 7.11184 8.40259 5.79382 8.57213C4.30354 8.76389 3.27814 9.32834 2.74602 10.25C2.31685 10.9933 2.25009 11.906 2.5476 12.9627C2.59085 13.1164 2.69336 13.2465 2.83258 13.3246C2.97179 13.4026 3.13631 13.4222 3.28993 13.3789C3.44356 13.3357 3.57372 13.2332 3.65177 13.0939C3.72981 12.9547 3.74936 12.7902 3.70611 12.6366C3.49983 11.904 3.52751 11.3036 3.78827 10.8518C4.48351 9.64768 6.97665 9.37504 10.4574 10.1227C13.0716 10.6841 16.0632 11.7563 19.1566 13.2257C17.9815 13.8434 16.8263 14.4983 15.6928 15.1893C15.6253 15.2305 15.5666 15.2845 15.52 15.3483C15.4734 15.4121 15.4398 15.4845 15.4212 15.5613C15.4026 15.6381 15.3993 15.7178 15.4115 15.7959C15.4236 15.874 15.4511 15.9489 15.4922 16.0164C15.5333 16.0839 15.5874 16.1426 15.6512 16.1892C15.715 16.2358 15.7874 16.2694 15.8642 16.288C15.941 16.3066 16.0207 16.3099 16.0988 16.2977C16.1769 16.2856 16.2518 16.2581 16.3193 16.217C16.7402 15.9604 17.1641 15.7089 17.5909 15.4624C18.5464 14.9108 19.5167 14.3852 20.5008 13.8863C21.4838 14.3854 22.4532 14.911 23.4079 15.4624C24.3633 16.0137 25.3035 16.5907 26.2277 17.1928C26.2871 18.2942 26.3167 19.3971 26.3165 20.5001C26.3165 23.1433 26.1505 25.7076 25.8233 28.1218C25.8118 28.207 25.8186 28.2936 25.8433 28.3759C25.8681 28.4582 25.9101 28.5342 25.9667 28.5989C26.0233 28.6636 26.093 28.7154 26.1713 28.7508C26.2496 28.7863 26.3345 28.8046 26.4204 28.8045C26.5659 28.8042 26.7064 28.7513 26.8159 28.6556C26.9254 28.5598 26.9965 28.4276 27.016 28.2834C27.3504 25.8159 27.5201 23.1972 27.5201 20.5001C27.5201 19.6668 27.5037 18.8411 27.4716 18.0264C28.6457 18.8361 29.7508 19.6651 30.7708 20.4999C30.069 21.073 29.3099 21.6576 28.491 22.2511C28.388 22.3258 28.3113 22.4311 28.2719 22.552C28.2325 22.673 28.2325 22.8033 28.2718 22.9243C28.311 23.0452 28.3876 23.1506 28.4906 23.2254C28.5935 23.3001 28.7175 23.3403 28.8447 23.3402C28.9714 23.3402 29.0948 23.3001 29.1973 23.2256C30.0848 22.5823 30.9226 21.9347 31.7061 21.2877C32.7547 22.1978 33.6959 23.1103 34.5077 24.008C36.8955 26.6487 37.906 28.9442 37.2107 30.1482C36.5155 31.3523 34.0224 31.6249 30.5416 30.8774C27.9277 30.316 24.9364 29.2439 21.8433 27.7748C22.8228 27.2595 23.7884 26.7185 24.7394 26.1522C24.8765 26.0706 24.9756 25.9378 25.0149 25.7831C25.0541 25.6284 25.0303 25.4645 24.9487 25.3273C24.8671 25.1902 24.7343 25.0911 24.5796 25.0518C24.4249 25.0126 24.2609 25.0364 24.1238 25.118C23.8861 25.2595 23.6475 25.3993 23.408 25.5376C22.4529 26.0893 21.483 26.6151 20.4995 27.1144C19.516 26.6151 18.5461 26.0893 17.591 25.5376C16.6355 24.986 15.6951 24.4087 14.7708 23.8062C14.7117 22.7051 14.6822 21.6026 14.6825 20.4999C14.6825 17.8567 14.8484 15.2924 15.1756 12.8782C15.1962 12.7204 15.1535 12.5609 15.0568 12.4346C14.9601 12.3082 14.8174 12.2253 14.6597 12.204C14.5021 12.1826 14.3424 12.2245 14.2155 12.3206C14.0887 12.4167 14.0051 12.559 13.983 12.7166C13.6486 15.1841 13.479 17.8028 13.479 20.4999C13.479 21.3334 13.4953 22.1585 13.5272 22.9724C12.3568 22.1649 11.2528 21.3366 10.2298 20.4988C10.9313 19.9262 11.6898 19.3419 12.508 18.7489C12.6373 18.6552 12.724 18.5141 12.7491 18.3565C12.7743 18.1989 12.7358 18.0377 12.6421 17.9085C12.5484 17.7793 12.4073 17.6926 12.2497 17.6674C12.0921 17.6423 11.931 17.6808 11.8017 17.7744C10.9151 18.417 10.0781 19.064 9.29519 19.7104C8.87268 19.3435 8.46444 18.9756 8.07586 18.6074C8.0185 18.5531 7.951 18.5105 7.8772 18.4823C7.8034 18.454 7.72476 18.4405 7.64576 18.4427C7.56676 18.4448 7.48896 18.4624 7.41679 18.4946C7.34461 18.5268 7.27949 18.5729 7.22513 18.6303C7.17077 18.6876 7.12825 18.7552 7.09998 18.829C7.07171 18.9027 7.05825 18.9814 7.06037 19.0604C7.0625 19.1394 7.08016 19.2172 7.11235 19.2894C7.14455 19.3615 7.19064 19.4267 7.248 19.481C7.61436 19.8274 7.98744 20.1666 8.36703 20.4985C6.67103 21.9815 5.27551 23.4498 4.24842 24.8401C2.4437 27.2831 1.92418 29.3266 2.74586 30.75C3.2779 31.6716 4.30338 32.2361 5.79366 32.4279C6.17269 32.4767 6.57956 32.501 7.01307 32.501C8.08702 32.501 9.32488 32.3516 10.71 32.0541C11.8869 31.8014 13.1364 31.4486 14.4344 31.0069C14.5594 31.6364 14.6952 32.2502 14.8437 32.8429C14.8763 32.973 14.9513 33.0884 15.057 33.171C15.1626 33.2535 15.2928 33.2984 15.4269 33.2986C15.5184 33.2987 15.6088 33.2779 15.6911 33.2378C15.7733 33.1977 15.8454 33.1393 15.9017 33.0672C15.9581 32.995 15.9972 32.911 16.0161 32.8214C16.0351 32.7319 16.0334 32.6392 16.0111 32.5504C15.8499 31.9038 15.706 31.2531 15.5798 30.5988C17.1728 30.0057 18.826 29.2877 20.4994 28.4605C23.969 30.1758 27.3538 31.4239 30.2888 32.0542C31.6741 32.3517 32.9117 32.501 33.9857 32.501C34.4191 32.501 34.8262 32.4767 35.2051 32.428C36.6954 32.2362 37.7208 31.6717 38.2529 30.7501C38.785 29.8284 38.7612 28.6581 38.1821 27.2716ZM24.0097 14.42C23.2962 14.008 22.5746 13.61 21.8454 13.2263C23.129 12.6171 24.3986 12.0745 25.6357 11.6073C25.8484 12.9074 26.0136 14.2781 26.1277 15.6988C25.4302 15.2587 24.724 14.8323 24.0097 14.42ZM10.4573 30.8774C6.97656 31.625 4.48343 31.3523 3.78819 30.1482C2.93441 28.6695 4.6309 25.3211 9.29214 21.2864C10.6075 22.3745 12.0557 23.447 13.6057 24.4804C13.7255 26.3405 13.93 28.1291 14.2148 29.8111C12.9021 30.2642 11.6409 30.6232 10.4573 30.8774ZM15.3654 29.3948C15.1511 28.0897 14.985 26.72 14.8709 25.3008C15.5685 25.7411 16.2747 26.1675 16.9892 26.58C17.7034 26.9924 18.4257 27.3908 19.1557 27.7748C17.8679 28.3864 16.598 28.9289 15.3654 29.3948Z" fill="black"/>
<path id="Vector_3" d="M20.4992 20.4613C20.5099 20.4613 20.5201 20.4656 20.5276 20.4731C20.5351 20.4806 20.5393 20.4908 20.5393 20.5015C20.5393 20.661 20.6027 20.8141 20.7156 20.927C20.8284 21.0398 20.9815 21.1032 21.1411 21.1032C21.3007 21.1032 21.4538 21.0398 21.5666 20.927C21.6795 20.8141 21.7429 20.661 21.7429 20.5015C21.7429 19.8157 21.185 19.2578 20.4992 19.2578C20.3396 19.2578 20.1866 19.3212 20.0737 19.4341C19.9609 19.5469 19.8975 19.7 19.8975 19.8596C19.8975 20.0192 19.9609 20.1722 20.0737 20.2851C20.1866 20.3979 20.3396 20.4613 20.4992 20.4613Z" fill="black"/>
</g>
</svg>
