<svg width="39" height="39" viewBox="0 0 39 39" fill="none" xmlns="http://www.w3.org/2000/svg">
<g id="Frame">
<path id="Vector" d="M28.4007 1.7972C26.0333 0.578449 23.3602 0 20.7073 0C12.2682 0 4.00777 5.84741 6.25903 15.5492L4.77604 17.3434L2.15527 22.141L4.70467 24.1679L4.59932 27.5754L5.61751 29.0357C5.61751 29.0357 4.4041 33.5942 6.25903 34.2404C8.00207 34.8498 9.90157 34.9998 11.3566 34.9998C12.7896 34.9998 13.7924 34.8546 13.7924 34.8546L13.9947 39H31.2036C31.2036 39 29.5016 30.4057 32.0867 26.7542C34.6741 23.1027 43.1102 9.36975 28.4007 1.7972ZM7.73601 10.2528C8.04252 8.85856 8.65784 7.57194 9.56535 6.42997C10.7347 4.95833 12.392 3.73661 14.3582 2.89628C16.3048 2.06433 18.5001 1.62513 20.7073 1.62513C23.1984 1.62513 25.6026 2.18392 27.6568 3.24203C29.8099 4.35071 31.5249 5.65332 32.7556 7.11369C33.816 8.37228 34.542 9.78207 34.9146 11.3038C35.4799 13.6217 35.2597 16.2549 34.2588 19.1393C33.9518 18.6799 33.5054 18.1604 32.802 17.6831L30.6109 14.3982L33.1579 13.3437L29.4338 10.8491L31.3821 8.90015L26.9879 8.0212L28.0424 5.47478L23.6447 6.34481V3.58838L19.9146 6.07471L18.8601 3.52828L16.3654 7.25293L14.4165 5.304L13.5376 9.69935L10.9911 8.64482L11.8612 13.042H9.6534C8.40076 12.0143 7.83061 11.0461 7.65153 10.695C7.67652 10.5468 7.70394 10.3986 7.73601 10.2528ZM13.4549 12.7266L13.1746 11.3079L14.7433 11.9578L15.1313 10.0184L15.4146 8.60026L16.6155 9.80058L17.7158 8.15694L18.521 6.95548L19.1702 8.52417L20.8162 7.42676L22.0195 6.62459V8.323L23.9601 7.93917L25.3788 7.65824L24.729 9.22693L26.669 9.61495L28.0865 9.89823L26.8855 11.0992L28.5304 12.1995L29.7313 13.004L28.1626 13.6538L29.2588 15.2998L30.0622 16.5031H29.8896C28.3757 16.1639 26.3714 16.0116 23.6947 16.2014C18.3001 16.5835 14.6754 15.7265 12.3189 14.6673H13.8387L13.4549 12.7266ZM29.0516 34.3095C29.0969 35.4628 29.2016 36.5268 29.3087 37.3754H15.5425L15.4151 34.7737L15.33 32.9872L13.5597 33.2455C13.5507 33.2467 12.639 33.3752 11.3566 33.3752C10.1897 33.3752 8.49544 33.2669 6.95349 32.7599C6.88387 32.5528 6.79818 32.0268 6.90055 31.0663C6.9928 30.1999 7.18681 29.4584 7.18795 29.4536L7.38196 28.7253L6.95052 28.1064L6.23999 27.0876L6.32926 24.218L6.35425 23.4027L5.7157 22.8957L4.2369 21.7198L6.12748 18.2593L7.51168 16.5847L8.02348 15.9646L7.84196 15.1821C7.69259 14.5394 7.5944 13.9086 7.54558 13.2921C8.04664 13.8295 8.70065 14.4157 9.54273 14.9834C9.98605 15.2827 10.4574 15.56 10.9531 15.8147L10.9859 15.8636L11.137 15.9082C12.2861 16.4795 13.5667 16.9335 14.9653 17.2632C17.5319 17.8684 20.5074 18.0565 23.8101 17.822C27.1854 17.5828 29.7206 17.8815 31.3416 18.7087C32.5651 19.3324 32.965 20.0941 33.2578 20.6487C33.3363 20.7999 33.4078 20.9368 33.491 21.0605C32.5389 23.1767 31.4106 24.8977 30.7607 25.8141C29.4777 27.6278 28.9017 30.4866 29.0516 34.3095Z" fill="black"/>
</g>
</svg>
