<svg width="40" height="40" viewBox="0 0 40 40" fill="none" xmlns="http://www.w3.org/2000/svg">
<g id="Frame">
<path id="Vector" d="M8.415 23C7.74039 22.6719 7.00018 22.5009 6.25 22.5C3.49313 22.5 1.25 24.7431 1.25 27.5C1.25 30.2569 3.49313 32.5 6.25 32.5C7.07198 32.4997 7.88119 32.2966 8.60594 31.9088C9.3307 31.5211 9.94863 30.9605 10.405 30.2769L15.1281 32.6413C15.0441 33.0049 15.0011 33.3768 15 33.75C15 36.5069 17.2431 38.75 20 38.75C22.7569 38.75 25 36.5069 25 33.75C25.0012 32.7519 24.7018 31.7766 24.1406 30.9513L30.7775 24.0119C31.636 24.6528 32.6786 24.9994 33.75 25C36.5069 25 38.75 22.7569 38.75 20C38.75 17.2431 36.5069 15 33.75 15C32.6404 15.0001 31.5628 15.3715 30.6888 16.055L23.945 9.31125C24.6285 8.43719 24.9999 7.35957 25 6.25C25 3.49313 22.7569 1.25 20 1.25C17.2431 1.25 15 3.49313 15 6.25C15 6.63 15.0463 6.99937 15.1275 7.35563L10.695 8.97062C9.86375 7.3575 8.18563 6.25 6.25 6.25C3.49313 6.25 1.25 8.49312 1.25 11.25C1.25 14.0069 3.49313 16.25 6.25 16.25C6.93864 16.2502 7.61978 16.107 8.25 15.8294L10.5506 19.7013L8.415 23ZM6.25 31.25C4.18187 31.25 2.5 29.5681 2.5 27.5C2.5 25.4319 4.18187 23.75 6.25 23.75C8.31812 23.75 10 25.4319 10 27.5C10 29.5681 8.31812 31.25 6.25 31.25ZM10.9619 29.1569C11.1513 28.625 11.2488 28.0646 11.25 27.5C11.2499 26.7711 11.0901 26.051 10.7819 25.3905C10.4736 24.73 10.0243 24.1451 9.46563 23.6769L11.2631 20.9006L16.6825 30.02C16.2239 30.4272 15.8439 30.9151 15.5613 31.4594L10.9619 29.1569ZM20 11.25C21.1096 11.2499 22.1872 10.8785 23.0612 10.195L29.8056 16.9394C29.3959 17.4658 29.0963 18.0692 28.9244 18.7137L24.9981 18.1737C24.9975 18.1575 25 18.1413 25 18.125C25 15.3681 22.7569 13.125 20 13.125C19.178 13.1253 18.3688 13.3283 17.644 13.7161C16.9193 14.1039 16.3013 14.6644 15.845 15.3481L15.0994 14.9756L17.8356 10.75C18.4913 11.0669 19.2237 11.25 20 11.25ZM20.625 28.7931V23.0812C21.6104 22.9554 22.536 22.5392 23.2842 21.8857C24.0323 21.2321 24.5691 20.3708 24.8263 19.4113L28.7525 19.9513C28.7525 19.9675 28.75 19.9837 28.75 20C28.75 21.1938 29.1712 22.2894 29.8719 23.15L23.3094 30.0119C22.5581 29.3439 21.6223 28.9191 20.625 28.7931ZM20 14.375C22.0681 14.375 23.75 16.0569 23.75 18.125C23.75 20.1931 22.0681 21.875 20 21.875C17.9319 21.875 16.25 20.1931 16.25 18.125C16.25 16.0569 17.9319 14.375 20 14.375ZM15.2881 16.4681C15.0987 17 15.0012 17.5604 15 18.125C15 20.67 16.9125 22.7725 19.375 23.0819V28.7938C18.7952 28.8662 18.2328 29.0406 17.7137 29.3088L12.0212 19.7294L14.4156 16.0319L15.2881 16.4681ZM20 37.5C17.9319 37.5 16.25 35.8181 16.25 33.75C16.25 31.6819 17.9319 30 20 30C22.0681 30 23.75 31.6819 23.75 33.75C23.75 35.8181 22.0681 37.5 20 37.5ZM33.75 16.25C35.8181 16.25 37.5 17.9319 37.5 20C37.5 22.0681 35.8181 23.75 33.75 23.75C31.6819 23.75 30 22.0681 30 20C30 17.9319 31.6819 16.25 33.75 16.25ZM20 2.5C22.0681 2.5 23.75 4.18187 23.75 6.25C23.75 8.31812 22.0681 10 20 10C17.9319 10 16.25 8.31812 16.25 6.25C16.25 4.18187 17.9319 2.5 20 2.5ZM15.555 8.52938C15.8589 9.12003 16.2767 9.6447 16.7844 10.0731L13.9744 14.4131L10.9619 12.9069C11.1513 12.375 11.2488 11.8146 11.25 11.25C11.25 10.87 11.2037 10.5006 11.1225 10.1444L15.555 8.52938ZM2.5 11.25C2.5 9.18188 4.18187 7.5 6.25 7.5C8.31812 7.5 10 9.18188 10 11.25C10 13.3181 8.31812 15 6.25 15C4.18187 15 2.5 13.3181 2.5 11.25ZM9.32187 15.1869C9.74189 14.8598 10.1075 14.4683 10.405 14.0269L13.2906 15.4694L11.3088 18.53L9.32187 15.1869Z" fill="black"/>
</g>
</svg>
